<?xml version="1.0" encoding="utf-8"?>
<!-- Generator: Adobe Illustrator 28.3.0, SVG Export Plug-In . SVG Version: 6.00 Build 0)  -->
<svg version="1.1" id="Capa_1" xmlns="http://www.w3.org/2000/svg" xmlns:xlink="http://www.w3.org/1999/xlink" x="0px" y="0px"
	 viewBox="0 0 800 800" style="enable-background:new 0 0 800 800;" xml:space="preserve">
<style type="text/css">
	.st0{fill:#4CAF50;}
</style>
<g>
	<g id="_x35_3_59_">
		<path class="st0" d="M682.8,117.2C607.3,41.6,506.8,0,400,0C293.2,0,192.7,41.6,117.2,117.2C41.6,192.7,0,293.2,0,400
			c0,106.8,41.6,207.3,117.2,282.8C192.7,758.4,293.2,800,400,800s207.3-41.6,282.8-117.2C758.4,607.3,800,506.8,800,400
			C800,293.2,758.4,192.7,682.8,117.2z M620.4,660.9c0-17.3,0-30.2,0-34.4c0.1-16.7-0.5-417.8-0.5-417.8l-9.1,0
			c0,0-74.7,42.1-74.7,354.6c57.4,15.8,33.2,78.4,28.9,86.4c0,5,0.1,24.7,0.3,49.4c-31.5,17.5-66,30.1-102.6,36.9
			c0-71.7,0-160.6,0-171.6c0-16.9-30.8-87.5,20.6-140c0-0.1,0.2-0.2,0.2-0.3c12.5-11.9,20.8-28.3,22.1-46.7c0.1-1.3,0-4.6,0-4.6
			L488,220.3l-16.2,0l4.8,170l-19.5,0v-170l-14.3,0v171h-16.1l0-171l-15.7,0l0,171h-19.1l5.5-171.1h-14.8l-18,144.7
			c0,0-0.4,5.4-0.4,7.5c0,22.3,10.3,42.3,26.5,55.2c53.3,60.2,16.9,121.6,16.9,136.1c0,9.8,0,104.5,0,177.8c-2.5,0.1-5,0.1-7.5,0.1
			c-45.4,0-88.8-8.9-128.5-25.1c0-69,0-145.2,0-154c-12.7-34.4-24.6-94-6.6-119.2c32.9-9.9,70.5-54.6,70.5-117.3
			c0-62.1-33.6-119.3-93.3-120.3v0c-0.3,0-1.3,0-1.6,0c0,0,0,0,0,0c-59.7,1-93.3,58.1-93.3,120.3c0,62.6,37.7,107.3,70.5,117.3
			c18,25.2,6.1,84.8-6.6,119.2c0,7.5,0,63.3,0,122.1C119.1,623.3,58.3,518.6,58.3,400C58.3,211.6,211.6,58.3,400,58.3
			S741.7,211.6,741.7,400C741.7,504.5,694.5,598.2,620.4,660.9z M186.8,350.9c0.5,4.2,2,9,3.5,13.3c1.4,4.5,3,8.9,4.8,13.2
			c3.4,8.6,7,16.5,10.1,23.4c3.2,6.8,6,12.5,8.2,16.3c2.1,3.9,4,5.6,4.1,5.4c0,0.2-2.8-0.4-6.4-3.4c-3.7-2.9-8.5-7.5-13.5-13.5
			c-5.1-6-10.3-13.5-15.2-22.1c-2.4-4.3-4.7-8.9-6.8-13.8c-2-5.1-3.7-10-4.8-15.8c-2.1-11.2-1.7-21.9-0.6-31.7
			c1.1-9.8,3.2-18.8,5.5-26.3c2.3-7.5,4.9-13.6,7-17.7c2.1-4.2,3.8-6.2,3.8-6.2s-0.4,2.7-0.5,7.1c-0.1,4.4-0.4,10.8-0.6,18.4
			C185.2,312.4,184,332.8,186.8,350.9z"/>
	</g>
</g>
</svg>
